<svg xmlns="http://www.w3.org/2000/svg" xmlns:xlink="http://www.w3.org/1999/xlink" xmlns:fi="http://pattern.flaticon.com/" x="0" y="0" width="3840" height="2160" viewBox="0 0 3360 1890"><rect x="0px" y="0px" width="100%" height="100%" opacity="1" fill="#eca365"/><defs><g transform="matrix(0.09395322948694229 0 0 0.09395322948694229 40.94797325134277 275.9479732513428)" id="L1_0"><path d="m283.559 335.123c-7.899 0-15.233 2.438-21.286 6.603-2.659 1.829-6.275-.07-6.275-3.297v-82.929h-73.941c-3.225 0-5.129 3.613-3.301 6.27 4.662 6.772 7.162 15.149 6.502 24.126-1.357 18.464-16.327 33.365-34.799 34.646-21.968 1.523-40.263-15.845-40.263-37.485 0-7.898 2.439-15.231 6.604-21.283 1.83-2.659-.07-6.274-3.298-6.274h-56.976c-58.758 60.266-19.539 163.03 65.517 167.397-8.78 46.365 26.97 89.104 73.821 89.104 24.565 0 46.417-11.851 60.134-30.133v-74.894c0-3.225 3.614-5.129 6.271-3.3 6.773 4.661 15.151 7.161 24.13 6.501 18.466-1.357 33.37-16.325 34.651-34.794 1.523-21.965-15.848-40.258-37.491-40.258z" fill="#ffaa17"/><path d="m116.8 261.773c-4.165 6.052-6.604 13.385-6.604 21.283 0 21.639 18.296 39.008 40.263 37.485 18.472-1.281 33.442-16.183 34.799-34.646.66-8.977-1.84-17.354-6.502-24.126-1.829-2.656.076-6.27 3.301-6.27h73.941v-82.929c0-3.225-3.614-5.129-6.271-3.3-6.773 4.661-15.151 7.161-24.13 6.501-18.466-1.357-33.37-16.325-34.651-34.794-1.523-21.965 15.848-40.258 37.49-40.258 7.899 0 15.233 2.438 21.286 6.603 2.659 1.829 6.275-.07 6.275-3.297v-73.892c-13.716-18.282-35.567-30.133-60.133-30.133-46.494 0-82.084 42.084-74 88.11-84.802 4.506-124.133 107.084-65.338 167.389h56.976c3.228 0 5.128 3.615 3.298 6.274z" fill="#32fca5"/><path d="m455.687 255.499h-57.193c-3.225 0-5.129-3.613-3.301-6.27 4.662-6.772 7.162-15.149 6.502-24.126-1.357-18.464-16.327-33.366-34.799-34.646-21.968-1.523-40.263 15.845-40.263 37.485 0 7.898 2.439 15.231 6.604 21.283 1.83 2.658-.07 6.274-3.298 6.274h-73.941v82.929c0 3.227 3.616 5.127 6.275 3.297 6.053-4.164 13.387-6.603 21.286-6.603 21.643 0 39.014 18.293 37.49 40.258-1.281 18.469-16.185 33.437-34.651 34.794-8.979.66-17.357-1.84-24.13-6.501-2.657-1.828-6.271.076-6.271 3.3v74.894c13.718 18.282 35.569 30.133 60.135 30.133 46.494 0 82.084-42.084 74-88.11 85.48-4.542 123.747-107.947 65.433-168.262.041-.043.08-.086.122-.129z" fill="#cd0000"/><path d="m255.998 406.973c0-3.225 3.614-5.129 6.271-3.3 6.773 4.661 15.151 7.161 24.13 6.501 18.466-1.357 33.37-16.325 34.651-34.794 1.523-21.965-15.848-40.258-37.49-40.258-7.899 0-15.233 2.438-21.286 6.603-2.659 1.829-6.275-.07-6.275-3.297v68.545z" fill="#ff7900"/><path d="m389.953 89.104c8.78-46.366-26.97-89.104-73.821-89.104-24.565 0-46.417 11.851-60.134 30.133v73.892c0 3.227-3.616 5.127-6.275 3.297-6.053-4.164-13.387-6.603-21.286-6.603-21.643 0-39.014 18.293-37.49 40.258 1.281 18.469 16.185 33.437 34.651 34.794 8.979.66 17.357-1.84 24.13-6.501 2.657-1.828 6.271.076 6.271 3.3v82.929h73.941c3.228 0 5.127-3.615 3.298-6.274-4.165-6.052-6.604-13.385-6.604-21.283 0-21.639 18.295-39.008 40.263-37.485 18.472 1.281 33.442 16.183 34.799 34.646.66 8.977-1.84 17.354-6.502 24.126-1.829 2.656.076 6.27 3.301 6.27h57.193c58.729-59.496 18.649-162.063-65.735-166.395z" fill="#0095ff"/><path d="m249.723 107.322c-6.053-4.164-13.387-6.603-21.286-6.603-21.643 0-39.014 18.293-37.49 40.258 1.281 18.469 16.185 33.437 34.651 34.794 8.979.66 17.357-1.84 24.13-6.501 2.657-1.828 6.271.076 6.271 3.3v-68.545c-.001 3.227-3.617 5.126-6.276 3.297z" fill="#4ec9ff"/></g><g transform="matrix(0.09785614162683487 0 0 0.09785614162683487 41.035923690409845 117.93927818536758)" id="L1_1"><path d="m219.879 467 24.535 38.356c5.986 8.924 19.155 8.844 25.025-.168l23.748-38.188-37.188-10z" fill="#004692"/><path d="m293.189 467-23.75 38.19c-3.13 4.81-8.35 7.07-13.44 6.78v-54.97z" fill="#00204d"/><path d="m330.499 407-74.5-10-74.5 10 38.38 60h73.308z" fill="#ffda2d"/><path d="m330.499 407-37.31 60h-37.19v-70z" fill="#ffaa17"/><path d="m330.499 290.59v116.41h-59.5l-15-10-15 10h-59.5v-116.41z" fill="#4ec9ff"/><path d="m330.499 290.59v116.41h-59.5l-15-10v-106.41z" fill="#0095ff"/><path d="m240.999 290.59h30v116.41h-30z" fill="#9bfcff"/><path d="m255.999 290.59h15v116.41h-15z" fill="#4ec9ff"/><path d="m459.145 191.981c19.431-57.843-31.19-118.318-93.918-104.652-11.176-49.67-55.797-87.329-109.478-87.329-53.418 0-98.096 37.063-109.19 87.386-62.476-13.867-113.827 46.451-94.169 104.702-24.201 5.78-42.391 26.825-42.391 53.482 0 30.338 24.682 55.02 55.02 55.02h381.96c30.338 0 55.02-24.682 55.02-55.02 0-26.831-18.454-47.981-42.854-53.589z" fill="#ffccbd"/><path d="m501.999 245.57c0 30.34-24.68 55.02-55.02 55.02h-190.98v-300.59c53.57.12 98.07 37.74 109.23 87.33 62.73-13.67 113.35 46.81 93.92 104.65 24.4 5.61 42.85 26.76 42.85 53.59z" fill="#ffbda9"/><path d="m446.979 270.59h-105.225c-22.527-.326-36.521-15.032-42.111-28.729-16.192-39.668 26.11-76.312 62.905-57.114 7.345 3.832 16.405.984 20.237-6.36 3.832-7.345.984-16.405-6.36-20.237-61.902-32.295-131.145 29.909-104.558 95.049 2.587 6.339 5.893 12.161 9.807 17.392h-51.85c3.913-5.231 7.219-11.052 9.807-17.392 26.596-65.162-42.683-127.33-104.558-95.049-7.345 3.832-10.192 12.893-6.36 20.237s12.892 10.193 20.237 6.36c36.775-19.189 79.105 17.423 62.905 57.114-5.59 13.696-19.584 28.402-42.111 28.729h-104.725c-13.796 0-25.02-11.224-25.02-25.02 0-16.609 15.098-27.082 29.303-24.676 24.267 27.72 68.535 36.286 103.593 16.238 7.192-4.112 9.688-13.276 5.576-20.467-4.113-7.192-13.277-9.688-20.467-5.576-42.211 24.138-92.445-16.014-77.023-61.209 10.078-29.535 43.843-42.84 71.184-28.847 9.711 4.969 21.369-1.787 21.822-12.732 1.816-43.907 37.731-78.3 81.763-78.3 44.076 0 80.145 34.338 82.115 78.173.488 10.857 12.029 17.61 21.733 12.723 27.07-13.635 60.846-.752 70.958 29.083 15.364 45.333-35.015 85.151-77.061 61.108-7.191-4.113-16.356-1.615-20.467 5.576-4.112 7.191-1.616 16.355 5.576 20.467 34.289 19.607 76.949 12.69 103.319-16.09 14.303-2.906 30.077 7.473 30.077 24.528-.001 13.797-11.225 25.021-25.021 25.021z" fill="#ffede4"/><path d="m471.999 245.57c0 13.8-11.22 25.02-25.02 25.02h-105.23c-22.52-.33-36.52-15.03-42.11-28.73-16.19-39.67 26.11-76.31 62.91-57.11 7.34 3.83 16.4.98 20.24-6.36 3.83-7.35.98-16.41-6.36-20.24-61.91-32.3-131.15 29.91-104.56 95.05 2.59 6.34 5.89 12.16 9.8 17.39h-25.67v-240.59c43.97.13 79.9 34.42 81.87 78.17.48 10.86 12.02 17.61 21.73 12.73 27.07-13.64 60.84-.76 70.96 29.08 15.36 45.33-35.02 85.15-77.06 61.11-7.2-4.11-16.36-1.62-20.47 5.57-4.11 7.2-1.62 16.36 5.57 20.47 34.29 19.61 76.95 12.69 103.32-16.09 14.31-2.9 30.08 7.47 30.08 24.53z" fill="#ffddce"/></g><g transform="matrix(0.10720677673816681 0 0 0.10720677673816681 226.64738684520125 24.555065155029297)" id="L1_2"><path d="m320.404 378 1.199-3c0-13.774 6.148-26.877 16.883-35.507 30.04-24.148 49.266-61.199 49.266-102.741 0-73.08-59.501-132.264-132.701-131.748-71.236.502-130.812 60.528-130.802 131.766.005 41.121 18.85 77.841 48.372 101.999 10.941 8.953 17.55 22.126 17.771 36.232l1.531 3h128.481z" fill="#ffda2d"/><path d="m387.75 236.75c0 41.54-19.22 78.59-49.26 102.74-10.74 8.63-16.89 21.74-16.89 35.51l-1.2 3h-64.4v-273c72.76 0 131.75 58.99 131.75 131.75z" fill="#ffaa17"/><path d="m210.5 461v5.5c0 25.129 20.371 45.5 45.5 45.5 25.129 0 45.5-20.371 45.5-45.5v-5.038z" fill="#004692"/><path d="m301.5 461.46v5.04c0 12.56-5.09 23.94-13.33 32.17-8.23 8.24-19.61 13.33-32.17 13.33v-50.77z" fill="#00204d"/><path d="m325.851 208.805c-5.078-6.545-14.5-7.734-21.046-2.656l-33.805 26.228v-14.377c0-12.456-14.359-19.484-24.195-11.851l-58 45c-6.545 5.078-7.735 14.501-2.656 21.046 5.085 6.555 14.51 7.728 21.046 2.656l33.805-26.228v14.377c0 12.455 14.359 19.485 24.195 11.851l58-45c6.545-5.078 7.735-14.501 2.656-21.046z" fill="#ff7900"/><path d="m323.19 229.85-58 45c-2.84 2.2-6.05 3.18-9.19 3.17v-75.04c7.73.04 15 6.16 15 15.02v14.38l33.81-26.23c6.54-5.08 15.96-3.89 21.04 2.66 5.08 6.54 3.89 15.96-2.66 21.04z" fill="#ff4800"/><path d="m256 0c-8.284 0-15 6.716-15 15v31c0 8.284 6.716 15 15 15s15-6.716 15-15v-31c0-8.284-6.716-15-15-15z" fill="#ffda2d"/><path d="m271 15v31c0 8.28-6.72 15-15 15v-61c8.28 0 15 6.72 15 15z" fill="#ffaa17"/><path d="m109.275 69.563c-5.857-5.858-15.355-5.858-21.213 0s-5.858 15.355 0 21.213l21.92 21.92c5.857 5.858 15.355 5.859 21.213 0 5.858-5.858 5.858-15.355 0-21.213z" fill="#ffda2d"/><path d="m79.5 237.5c0-8.284-6.716-15-15-15h-31c-8.284 0-15 6.716-15 15s6.716 15 15 15h31c8.284 0 15-6.716 15-15z" fill="#ffda2d"/><path d="m478.5 222.5h-31c-8.284 0-15 6.716-15 15s6.716 15 15 15h31c8.284 0 15-6.716 15-15s-6.716-15-15-15z" fill="#ffaa17"/><path d="m467.303 308.789-28.64-11.863c-7.653-3.171-16.428.464-19.599 8.118-3.17 7.654.464 16.428 8.118 19.599l28.64 11.863c7.683 3.183 16.44-.494 19.599-8.118 3.17-7.655-.464-16.429-8.118-19.599z" fill="#ffaa17"/><path d="m184.711 26.197c-3.171-7.653-11.945-11.287-19.599-8.118-7.654 3.17-11.288 11.945-8.118 19.599l11.863 28.64c3.166 7.642 11.934 11.293 19.599 8.118 7.654-3.17 11.288-11.945 8.118-19.599z" fill="#ffda2d"/><path d="m84.817 150.358-28.64-11.863c-7.654-3.171-16.428.464-19.599 8.118-3.17 7.654.464 16.428 8.118 19.599l28.64 11.863c7.683 3.183 16.44-.494 19.599-8.118 3.17-7.654-.464-16.429-8.118-19.599z" fill="#ffda2d"/><path d="m423.938 69.563c-5.857-5.858-15.355-5.858-21.213 0l-21.92 21.92c-5.858 5.858-5.858 15.355 0 21.213 5.857 5.858 15.355 5.859 21.213 0l21.92-21.92c5.857-5.859 5.857-15.356 0-21.213z" fill="#ffaa17"/><path d="m346.887 18.079c-7.654-3.169-16.428.464-19.599 8.118l-11.863 28.64c-3.17 7.654.464 16.428 8.118 19.599 1.877.777 3.821 1.146 5.734 1.146 5.886 0 11.471-3.487 13.864-9.264l11.863-28.64c3.171-7.655-.463-16.429-8.117-19.599z" fill="#ffaa17"/><path d="m73.337 296.926-28.64 11.863c-7.654 3.17-11.288 11.945-8.118 19.599 3.165 7.641 11.934 11.294 19.599 8.118l28.64-11.863c7.654-3.17 11.288-11.945 8.118-19.599-3.171-7.654-11.944-11.29-19.599-8.118z" fill="#ffda2d"/><path d="m419.064 169.957c3.165 7.641 11.934 11.294 19.599 8.118l28.64-11.863c7.654-3.17 11.288-11.945 8.118-19.599s-11.944-11.289-19.599-8.118l-28.64 11.863c-7.653 3.17-11.287 11.945-8.118 19.599z" fill="#ffaa17"/><path d="m321.602 375h-131.21v30l65.608 10 65.602-10z" fill="#edf5ff"/><path d="m321.6 375v30l-65.6 10v-40z" fill="#cee8ff"/><path d="m190.392 405v46c0 8.284 6.716 15 15 15h101.211c8.284 0 15-6.716 15-15v-46z" fill="#cee8ff"/><path d="m321.6 405v46c0 8.28-6.71 15-15 15h-50.6v-61z" fill="#aedaff"/></g><g transform="matrix(0.1171875 0 0 0.1171875 222 192)" id="L1_3"><circle cx="407" cy="105" r="105" fill="#cd0000"/><path d="m428.213 105 19.644-19.644c5.858-5.857 5.858-15.355 0-21.213-5.857-5.857-15.355-5.857-21.213 0l-19.644 19.644-19.644-19.644c-5.857-5.857-15.355-5.857-21.213 0s-5.858 15.355 0 21.213l19.644 19.644-19.644 19.644c-5.858 5.857-5.858 15.355 0 21.213 5.858 5.859 15.355 5.858 21.213 0l19.644-19.644 19.644 19.644c5.858 5.859 15.355 5.858 21.213 0 5.858-5.857 5.858-15.355 0-21.213z" fill="#ff637b"/><circle cx="105" cy="105" r="105" fill="#00ca7d"/><path d="m146.606 74.394c-5.857-5.857-15.355-5.857-21.213 0l-30.393 30.393-8.394-8.394c-5.857-5.857-15.355-5.857-21.213 0s-5.858 15.355 0 21.213l19 19c5.858 5.859 15.355 5.858 21.213 0l41-41c5.859-5.857 5.859-15.355 0-21.212z" fill="#32fca5"/><path d="m231.521 492h178l9.999-10s.001-158.041.001-155.411c0-16.648-12.4-30.689-28.92-32.747l-103.08-12.842v-99c0-18.225-14.775-33-33-33-18.225 0-33 14.775-33 33v177.987l-31.223-26.199c-13.934-11.692-35.857-10.734-48.718 2.127-12.862 12.862-11.984 32.95 1.949 44.642l77.992 65.443-.001 36z" fill="#ffccbd"/><path d="m419.52 326.56v155.44l-10 10h-153.52v-342.97c17.54.78 31.52 15.24 31.52 32.97v99l103.08 12.84c16.51 2.06 28.9 16.08 28.92 32.72z" fill="#ffbda9"/><path d="m419.52 482v20c0 5.523-4.477 10-10 10h-178c-5.523 0-10-4.477-10-10v-20z" fill="#0066b2"/><path d="m419.52 482v20c0 5.52-4.48 10-10 10h-153.52v-30z" fill="#004692"/></g></defs><g fi:class="KUsePattern"><pattern id="pattern_L1_0" width="350" height="350" patternUnits="userSpaceOnUse"><use xlink:href="#L1_0" x="-350" y="-350"/><use xlink:href="#L1_0" x="0" y="-350"/><use xlink:href="#L1_0" x="350" y="-350"/><use xlink:href="#L1_0" x="-350" y="0"/><use xlink:href="#L1_0" x="0" y="0"/><use xlink:href="#L1_0" x="350" y="0"/><use xlink:href="#L1_0" x="-350" y="350"/><use xlink:href="#L1_0" x="0" y="350"/><use xlink:href="#L1_0" x="350" y="350"/></pattern><rect x="0" y="0" width="100%" height="100%" fill="url(#pattern_L1_0)"/></g><g fi:class="KUsePattern"><pattern id="pattern_L1_1" width="350" height="350" patternUnits="userSpaceOnUse"><use xlink:href="#L1_1" x="-350" y="-350"/><use xlink:href="#L1_1" x="0" y="-350"/><use xlink:href="#L1_1" x="350" y="-350"/><use xlink:href="#L1_1" x="-350" y="0"/><use xlink:href="#L1_1" x="0" y="0"/><use xlink:href="#L1_1" x="350" y="0"/><use xlink:href="#L1_1" x="-350" y="350"/><use xlink:href="#L1_1" x="0" y="350"/><use xlink:href="#L1_1" x="350" y="350"/></pattern><rect x="0" y="0" width="100%" height="100%" fill="url(#pattern_L1_1)"/></g><g fi:class="KUsePattern"><pattern id="pattern_L1_2" width="350" height="350" patternUnits="userSpaceOnUse"><use xlink:href="#L1_2" x="-350" y="-350"/><use xlink:href="#L1_2" x="0" y="-350"/><use xlink:href="#L1_2" x="350" y="-350"/><use xlink:href="#L1_2" x="-350" y="0"/><use xlink:href="#L1_2" x="0" y="0"/><use xlink:href="#L1_2" x="350" y="0"/><use xlink:href="#L1_2" x="-350" y="350"/><use xlink:href="#L1_2" x="0" y="350"/><use xlink:href="#L1_2" x="350" y="350"/></pattern><rect x="0" y="0" width="100%" height="100%" fill="url(#pattern_L1_2)"/></g><g fi:class="KUsePattern"><pattern id="pattern_L1_3" width="350" height="350" patternUnits="userSpaceOnUse"><use xlink:href="#L1_3" x="-350" y="-350"/><use xlink:href="#L1_3" x="0" y="-350"/><use xlink:href="#L1_3" x="350" y="-350"/><use xlink:href="#L1_3" x="-350" y="0"/><use xlink:href="#L1_3" x="0" y="0"/><use xlink:href="#L1_3" x="350" y="0"/><use xlink:href="#L1_3" x="-350" y="350"/><use xlink:href="#L1_3" x="0" y="350"/><use xlink:href="#L1_3" x="350" y="350"/></pattern><rect x="0" y="0" width="100%" height="100%" fill="url(#pattern_L1_3)"/></g></svg>